<svg width="400" height="400" viewBox="0 0 400 400" fill="none" xmlns="http://www.w3.org/2000/svg" aria-hidden="true">
  <path d="M261.965 0C338.172 0 400 61.828 400 138.069V261.966C400 338.173 338.172 400 261.931 400H138.068C61.827 400 0 338.172 0 261.931V138.069C0 61.828 61.827 0 138.068 0H261.965ZM98.482 125.086C95.31 131.982 93.586 139.672 93.586 147.74V251.188C93.586 259.292 95.31 266.948 98.482 273.879C103.965 286.12 113.827 295.982 126.068 301.465C132.999 304.637 140.655 306.361 148.758 306.361H252.206C260.31 306.361 267.965 304.637 274.896 301.465L172.896 199.465L98.482 125.086ZM148.275 93.086C140.172 93.086 132.516 94.81 125.585 97.982L227.585 199.982L301.999 274.361C305.171 267.465 306.895 259.776 306.896 251.707V148.259C306.896 140.155 305.171 132.499 301.999 125.568C296.516 113.327 286.654 103.465 274.413 97.982C267.482 94.81 259.827 93.086 251.724 93.086H148.275Z" fill="black"/>
</svg>
